<?xml version="1.0" encoding="UTF-8"?><svg xmlns="http://www.w3.org/2000/svg" viewBox="0 0 174.55 172.35"><defs><style>.d{fill:#fff;stroke:#231f20;stroke-miterlimit:10;}</style></defs><g id="a"/><g id="b"><g id="c"><g><circle class="d" cx="87.27" cy="88.16" r="33.5"/><g><g><path class="d" d="M107.57,27.6c-.22,14.76-20.01,26.43-20.01,26.43,0,0-19.43-12.26-19.21-27.02,.22-14.76,20.01-26.43,20.01-26.43,0,0,19.43,12.26,19.21,27.02Z"/><path class="d" d="M103.8,27.55c-.18,11.92-16.16,21.35-16.16,21.35,0,0-15.7-9.9-15.52-21.82S88.28,5.72,88.28,5.72c0,0,15.7,9.9,15.52,21.82Z"/><path class="d" d="M100.08,27.49c-.14,9.12-12.37,16.34-12.37,16.34,0,0-12.01-7.58-11.88-16.7,.14-9.12,12.37-16.34,12.37-16.34,0,0,12.01,7.58,11.88,16.7Z"/><circle class="d" cx="87.96" cy="27.31" r="9.31"/></g><g><path class="d" d="M63.55,28.68c9.32,11.45,1.66,33.11,1.66,33.11,0,0-22.77,3.1-32.09-8.35s-1.66-33.11-1.66-33.11c0,0,22.77-3.1,32.09,8.35Z"/><path class="d" d="M60.62,31.06c7.53,9.25,1.34,26.75,1.34,26.75,0,0-18.39,2.51-25.92-6.74-7.53-9.25-1.34-26.75-1.34-26.75,0,0,18.39-2.51,25.92,6.74Z"/><path class="d" d="M57.74,33.41c5.76,7.08,1.03,20.47,1.03,20.47,0,0-14.07,1.92-19.83-5.16s-1.03-20.47-1.03-20.47c0,0,14.07-1.92,19.83,5.16Z"/><circle class="d" cx="48.34" cy="41.07" r="9.31"/></g><g><path class="d" d="M30.52,57.81c14.5,2.78,22.56,24.3,22.56,24.3,0,0-15.45,17.01-29.94,14.23C8.63,93.56,.58,72.04,.58,72.04c0,0,15.45-17.01,29.94-14.23Z"/><path class="d" d="M29.81,61.51c11.71,2.25,18.22,19.63,18.22,19.63,0,0-12.48,13.74-24.19,11.49-11.71-2.25-18.22-19.63-18.22-19.63,0,0,12.48-13.74,24.19-11.49Z"/><path class="d" d="M29.11,65.17c8.96,1.72,13.94,15.02,13.94,15.02,0,0-9.55,10.51-18.51,8.8-8.96-1.72-13.94-15.02-13.94-15.02,0,0,9.55-10.51,18.51-8.8Z"/><circle class="d" cx="26.83" cy="77.07" r="9.31"/></g><g><path class="d" d="M23.94,101.35c12.89-7.19,32.9,4.11,32.9,4.11,0,0-.9,22.96-13.79,30.15-12.89,7.19-32.9-4.11-32.9-4.11,0,0,.9-22.96,13.79-30.15Z"/><path class="d" d="M25.78,104.65c10.41-5.81,26.57,3.32,26.57,3.32,0,0-.73,18.55-11.14,24.35-10.41,5.81-26.57-3.32-26.57-3.32,0,0,.73-18.55,11.14-24.35Z"/><path class="d" d="M27.59,107.89c7.97-4.44,20.33,2.54,20.33,2.54,0,0-.56,14.19-8.52,18.63-7.97,4.44-20.33-2.54-20.33-2.54,0,0,.56-14.19,8.52-18.63Z"/><circle class="d" cx="33.49" cy="118.48" r="9.31"/></g><g><path class="d" d="M46.89,138.94c5.26-13.79,27.85-17.99,27.85-17.99,0,0,14.07,18.17,8.81,31.96-5.26,13.79-27.85,17.99-27.85,17.99,0,0-14.07-18.17-8.81-31.96Z"/><path class="d" d="M50.41,140.28c4.24-11.14,22.49-14.53,22.49-14.53,0,0,11.36,14.67,7.12,25.82-4.24,11.14-22.49,14.53-22.49,14.53,0,0-11.36-14.67-7.12-25.82Z"/><path class="d" d="M53.89,141.6c3.25-8.53,17.21-11.12,17.21-11.12,0,0,8.7,11.23,5.45,19.75-3.25,8.53-17.21,11.12-17.21,11.12,0,0-8.7-11.23-5.45-19.75Z"/><circle class="d" cx="65.22" cy="145.92" r="9.31"/></g><g><path class="d" d="M88.62,152.98c-4.84-13.95,9.76-31.68,9.76-31.68,0,0,22.46,4.87,27.3,18.82,4.84,13.95-9.76,31.68-9.76,31.68,0,0-22.46-4.87-27.3-18.82Z"/><path class="d" d="M92.19,151.74c-3.91-11.26,7.89-25.59,7.89-25.59,0,0,18.14,3.94,22.05,15.2s-7.89,25.59-7.89,25.59c0,0-18.14-3.94-22.05-15.2Z"/><path class="d" d="M95.7,150.52c-2.99-8.62,6.04-19.58,6.04-19.58,0,0,13.88,3.01,16.87,11.63,2.99,8.62-6.04,19.58-6.04,19.58,0,0-13.88-3.01-16.87-11.63Z"/><circle class="d" cx="107.15" cy="146.55" r="9.31"/></g><g><path class="d" d="M129.62,136.91c-12.67-7.57-12.89-30.55-12.89-30.55,0,0,20.33-10.7,33.01-3.13,12.67,7.57,12.89,30.55,12.89,30.55,0,0-20.33,10.7-33.01,3.13Z"/><path class="d" d="M131.56,133.67c-10.24-6.12-10.41-24.67-10.41-24.67,0,0,16.42-8.64,26.66-2.53,10.24,6.12,10.41,24.67,10.41,24.67,0,0-16.42,8.64-26.66,2.53Z"/><path class="d" d="M133.47,130.48c-7.83-4.68-7.96-18.88-7.96-18.88,0,0,12.57-6.61,20.4-1.94,7.83,4.68,7.96,18.88,7.96,18.88,0,0-12.57,6.61-20.4,1.94Z"/><circle class="d" cx="139.68" cy="120.07" r="9.31"/></g><g><path class="d" d="M150.7,98.24c-14.57,2.35-29.51-15.12-29.51-15.12,0,0,8.7-21.27,23.27-23.61,14.57-2.35,29.51,15.12,29.51,15.12,0,0-8.7,21.27-23.27,23.61Z"/><path class="d" d="M150.1,94.52c-11.77,1.89-23.83-12.21-23.83-12.21,0,0,7.02-17.18,18.8-19.07s23.83,12.21,23.83,12.21c0,0-7.02,17.18-18.8,19.07Z"/><path class="d" d="M149.51,90.85c-9.01,1.45-18.24-9.34-18.24-9.34,0,0,5.38-13.14,14.38-14.59,9.01-1.45,18.24,9.34,18.24,9.34,0,0-5.38,13.14-14.38,14.59Z"/><circle class="d" cx="147.58" cy="78.88" r="9.31"/></g><g><path class="d" d="M141.99,55.07c-9.66,11.17-32.32,7.39-32.32,7.39,0,0-7.01-21.88,2.65-33.05,9.66-11.17,32.32-7.39,32.32-7.39,0,0,7.01,21.88-2.65,33.05Z"/><path class="d" d="M139.14,52.61c-7.8,9.02-26.11,5.97-26.11,5.97,0,0-5.66-17.68,2.14-26.69s26.11-5.97,26.11-5.97c0,0,5.66,17.68-2.14,26.69Z"/><path class="d" d="M136.33,50.17c-5.97,6.9-19.98,4.56-19.98,4.56,0,0-4.33-13.52,1.64-20.43,5.97-6.9,19.98-4.56,19.98-4.56,0,0,4.33,13.52-1.64,20.43Z"/><circle class="d" cx="127.16" cy="42.24" r="9.31"/></g></g></g></g></g></svg>